HIERARCHY
ROOT Hips
{
    OFFSET   0.000000   0.000000   0.000000
    CHANNELS 6 Xposition Yposition Zposition Zrotation Xrotation Yrotation
    JOINT Chest
    {
        OFFSET   0.000000   8.007230   0.000000
        CHANNELS 3 Zrotation Xrotation Yrotation
        JOINT Chest2
        {
            OFFSET   0.000000  22.077100   0.000000
            CHANNELS 3 Zrotation Xrotation Yrotation
            JOINT Neck
            {
                OFFSET   0.000000  23.254700   0.000000
                CHANNELS 3 Zrotation Xrotation Yrotation
                JOINT Head
                {
                    OFFSET   0.000010  14.370000   1.956610
                    CHANNELS 3 Zrotation Xrotation Yrotation
                    End Site
                    {
                        OFFSET   0.000000  19.566000   0.000000
                    }
                }
            }
            JOINT LeftCollar
            {
                OFFSET   3.911900  19.017000  -0.467063
                CHANNELS 3 Zrotation Xrotation Yrotation
                JOINT LeftShoulder
                {
                    OFFSET  10.383700   0.000000   0.000000
                    CHANNELS 3 Zrotation Xrotation Yrotation
                    JOINT LeftElbow
                    {
                        OFFSET  26.662100   0.001671   0.000522
                        CHANNELS 3 Zrotation Xrotation Yrotation
                        JOINT LeftWrist
                        {
                            OFFSET  28.869000   0.000037  -0.000114
                            CHANNELS 3 Zrotation Xrotation Yrotation
                            JOINT LeftFinger0
                            {
                                OFFSET   2.044650  -2.323450   3.252850
                                CHANNELS 3 Zrotation Xrotation Yrotation
                                JOINT LeftFinger01
                                {
                                    OFFSET   3.088140   0.000000   0.000000
                                    CHANNELS 3 Zrotation Xrotation Yrotation
                                    JOINT LeftFinger02
                                    {
                                        OFFSET   2.639460   0.000000   0.000000
                                        CHANNELS 3 Zrotation Xrotation Yrotation
                                        End Site
                                        {
                                            OFFSET   2.582190   0.000000   0.000000
                                        }
                                    }
                                }
                            }
                            JOINT LeftFinger1
                            {
                                OFFSET   8.364480   0.000000   3.252850
                                CHANNELS 3 Zrotation Xrotation Yrotation
                                JOINT LeftFinger11
                                {
                                    OFFSET   4.646930   0.000000   0.000000
                                    CHANNELS 3 Zrotation Xrotation Yrotation
                                    JOINT LeftFinger12
                                    {
                                        OFFSET   2.323470   0.000000   0.000000
                                        CHANNELS 3 Zrotation Xrotation Yrotation
                                        End Site
                                        {
                                            OFFSET   2.273050   0.000000   0.000000
                                        }
                                    }
                                }
                            }
                            JOINT LeftFinger2
                            {
                                OFFSET   8.364490   0.000016   1.078090
                                CHANNELS 3 Zrotation Xrotation Yrotation
                                JOINT LeftFinger21
                                {
                                    OFFSET   5.111620   0.000000   0.000000
                                    CHANNELS 3 Zrotation Xrotation Yrotation
                                    JOINT LeftFinger22
                                    {
                                        OFFSET   2.788150   0.000013   0.000000
                                        CHANNELS 3 Zrotation Xrotation Yrotation
                                        End Site
                                        {
                                            OFFSET   2.727660   0.000000   0.000000
                                        }
                                    }
                                }
                            }
                            JOINT LeftFinger3
                            {
                                OFFSET   7.899780   0.000016  -1.078090
                                CHANNELS 3 Zrotation Xrotation Yrotation
                                JOINT LeftFinger31
                                {
                                    OFFSET   4.646930   0.000000   0.000000
                                    CHANNELS 3 Zrotation Xrotation Yrotation
                                    JOINT LeftFinger32
                                    {
                                        OFFSET   2.323470   0.000000   0.000000
                                        CHANNELS 3 Zrotation Xrotation Yrotation
                                        End Site
                                        {
                                            OFFSET   2.273050   0.000000   0.000000
                                        }
                                    }
                                }
                            }
                            JOINT LeftFinger4
                            {
                                OFFSET   7.435080   0.000000  -3.252850
                                CHANNELS 3 Zrotation Xrotation Yrotation
                                JOINT LeftFinger41
                                {
                                    OFFSET   3.717550   0.000000   0.000000
                                    CHANNELS 3 Zrotation Xrotation Yrotation
                                    JOINT LeftFinger42
                                    {
                                        OFFSET   1.858760   0.000000   0.000000
                                        CHANNELS 3 Zrotation Xrotation Yrotation
                                        End Site
                                        {
                                            OFFSET   1.818440   0.000000   0.000000
                                        }
                                    }
                                }
                            }
                        }
                    }
                }
            }
            JOINT RightCollar
            {
                OFFSET  -3.911900  19.017000  -0.467064
                CHANNELS 3 Zrotation Xrotation Yrotation
                JOINT RightShoulder
                {
                    OFFSET -10.383700   0.000000   0.000000
                    CHANNELS 3 Zrotation Xrotation Yrotation
                    JOINT RightElbow
                    {
                        OFFSET -26.662100   0.001633   0.000260
                        CHANNELS 3 Zrotation Xrotation Yrotation
                        JOINT RightWrist
                        {
                            OFFSET -28.869000  -0.000045  -0.000080
                            CHANNELS 3 Zrotation Xrotation Yrotation
                            JOINT RightFinger0
                            {
                                OFFSET  -2.044660  -2.323490   3.252850
                                CHANNELS 3 Zrotation Xrotation Yrotation
                                JOINT RightFinger01
                                {
                                    OFFSET  -3.088140   0.000000   0.000000
                                    CHANNELS 3 Zrotation Xrotation Yrotation
                                    JOINT RightFinger02
                                    {
                                        OFFSET  -2.639450   0.000000   0.000000
                                        CHANNELS 3 Zrotation Xrotation Yrotation
                                        End Site
                                        {
                                            OFFSET  -2.582190   0.000000   0.000000
                                        }
                                    }
                                }
                            }
                            JOINT RightFinger1
                            {
                                OFFSET  -8.364480   0.000000   3.252850
                                CHANNELS 3 Zrotation Xrotation Yrotation
                                JOINT RightFinger11
                                {
                                    OFFSET  -4.646920   0.000000   0.000000
                                    CHANNELS 3 Zrotation Xrotation Yrotation
                                    JOINT RightFinger12
                                    {
                                        OFFSET  -2.323470   0.000000   0.000000
                                        CHANNELS 3 Zrotation Xrotation Yrotation
                                        End Site
                                        {
                                            OFFSET  -2.273050   0.000000   0.000000
                                        }
                                    }
                                }
                            }
                            JOINT RightFinger2
                            {
                                OFFSET  -8.364480   0.000000   1.078090
                                CHANNELS 3 Zrotation Xrotation Yrotation
                                JOINT RightFinger21
                                {
                                    OFFSET  -5.111610   0.000000   0.000000
                                    CHANNELS 3 Zrotation Xrotation Yrotation
                                    JOINT RightFinger22
                                    {
                                        OFFSET  -2.788160   0.000000   0.000000
                                        CHANNELS 3 Zrotation Xrotation Yrotation
                                        End Site
                                        {
                                            OFFSET  -2.727660   0.000000   0.000000
                                        }
                                    }
                                }
                            }
                            JOINT RightFinger3
                            {
                                OFFSET  -7.899780   0.000000  -1.078090
                                CHANNELS 3 Zrotation Xrotation Yrotation
                                JOINT RightFinger31
                                {
                                    OFFSET  -4.646930   0.000000   0.000000
                                    CHANNELS 3 Zrotation Xrotation Yrotation
                                    JOINT RightFinger32
                                    {
                                        OFFSET  -2.323470   0.000000   0.000000
                                        CHANNELS 3 Zrotation Xrotation Yrotation
                                        End Site
                                        {
                                            OFFSET  -2.273050   0.000000   0.000000
                                        }
                                    }
                                }
                            }
                            JOINT RightFinger4
                            {
                                OFFSET  -7.435090   0.000000  -3.252850
                                CHANNELS 3 Zrotation Xrotation Yrotation
                                JOINT RightFinger41
                                {
                                    OFFSET  -3.717550   0.000000   0.000000
                                    CHANNELS 3 Zrotation Xrotation Yrotation
                                    JOINT RightFinger42
                                    {
                                        OFFSET  -1.858760   0.000000   0.000000
                                        CHANNELS 3 Zrotation Xrotation Yrotation
                                        End Site
                                        {
                                            OFFSET  -1.818440   0.000000   0.000000
                                        }
                                    }
                                }
                            }
                        }
                    }
                }
            }
        }
    }
    JOINT LeftHip
    {
        OFFSET   9.782990   0.000000   0.000000
        CHANNELS 3 Zrotation Xrotation Yrotation
        JOINT LeftKnee
        {
            OFFSET  -0.000063 -41.789100   0.001657
            CHANNELS 3 Zrotation Xrotation Yrotation
            JOINT LeftAnkle
            {
                OFFSET   0.000078 -41.133200  -0.000113
                CHANNELS 3 Zrotation Xrotation Yrotation
                JOINT LeftToe
                {
                    OFFSET   0.000000  -6.358970  14.674500
                    CHANNELS 3 Zrotation Xrotation Yrotation
                    End Site
                    {
                        OFFSET   0.000000   0.000000   3.913200
                    }
                }
            }
        }
    }
    JOINT RightHip
    {
        OFFSET  -9.782990   0.000000   0.000000
        CHANNELS 3 Zrotation Xrotation Yrotation
        JOINT RightKnee
        {
            OFFSET   0.000053 -41.789200   0.000277
            CHANNELS 3 Zrotation Xrotation Yrotation
            JOINT RightAnkle
            {
                OFFSET   0.000030 -41.133200  -0.000150
                CHANNELS 3 Zrotation Xrotation Yrotation
                JOINT RightToe
                {
                    OFFSET   0.000000  -6.358960  14.674500
                    CHANNELS 3 Zrotation Xrotation Yrotation
                    End Site
                    {
                        OFFSET   0.000000   0.000000   3.913200
                    }
                }
            }
        }
    }
}
MOTION
Frames: 4
Frame Time:   0.016667
  3.397590  89.218000   1.883830  -2.786320 -18.159400   3.934040  -2.471290  11.565600   6.487020  -6.489690  22.750900  13.915300   3.980440  -3.483970   0.243763   6.604010  -6.961300 -11.801000  -3.674550  -8.906660   0.712969 -66.371200  21.961000  -8.606530  -1.092000  -6.098750 -15.324700  11.622600  -5.999470   4.368090  41.458500  37.676800 -69.929600 -31.759700   0.000000   0.000080 -10.879800   0.002479   0.000000 -30.299600   4.809460  -8.165080 -25.069900   0.004877   0.007490 -17.548900  -0.003033   0.007476 -28.339700  -1.720140   3.185820 -34.968900   0.001148   0.000946 -23.289300  -0.003527  -0.000000 -27.851500  -1.692870   3.200430 -31.348400   0.000570  -0.000236 -20.878000   0.000656   0.003049 -28.719400  -1.740790   3.174050 -43.148400  -0.007718   0.000780 -28.736900  -0.005992  -0.000184   2.962980  -8.808020  10.706700   3.691660 -15.394900  57.206600  -7.773360   5.079070   0.262100  -7.879700   5.390880  -0.653149 -17.537400  44.968600  58.965000  82.540500   0.000215  -0.003725  48.312000   0.000417  -0.002466   2.903720   1.608110  28.948900   2.714800   0.002622   0.000970   1.900360   0.005303  -0.004259  87.124000   0.003820  -0.004055  87.124000  -0.001189  -0.004061  65.342900  -0.004185  -0.000319  88.996300  -4.990780  -0.087676  92.238600  -0.002499  -0.002387  69.179000  -0.004008   0.003200  88.985200  -9.998970  -0.172759 110.000000  -0.004429   0.004165  80.000000   0.003579  -0.000092   3.221670  20.803200   7.780820   0.649047   0.162659  -1.843590  -2.532210  -3.281630  -5.205030   0.000000   0.000000   0.000000   2.901060  19.457900  -0.593203  -1.250450   5.613510 -12.011800   1.705330  -6.307260  -0.989238  -0.000000   0.000000   0.000000
  3.490460  89.183800   1.999230  -2.463100 -18.173200   4.744410  -2.481680  11.534900   6.357860  -6.470160  22.697300  13.642500   3.829230  -3.593150   0.244224   6.356950  -7.187240 -12.159400  -3.644000  -8.822810   0.829079 -66.317500  22.256000  -8.443900  -1.021760  -6.692590 -15.327500  11.534900  -6.619770   4.509400  42.011500  38.496300 -70.921500 -31.749400   0.000000   0.000036 -10.874700   0.002424   0.000000 -30.272900   4.836610  -8.224670 -25.053000   0.005074   0.007566 -17.537100  -0.003007   0.007791 -28.334800  -1.679080   3.111110 -34.918700   0.001082   0.000987 -23.255800  -0.003544  -0.000050 -27.847200  -1.652440   3.125330 -31.319400   0.000556  -0.000198 -20.858700   0.000595   0.003023 -28.670900  -1.696770   3.101480 -43.074400  -0.007722   0.000780 -28.687600  -0.005992  -0.000229   2.922090  -8.650500  10.774100   3.272520 -15.260500  57.118900  -7.510960   5.456380   0.130548  -8.104350   5.960520  -0.929416 -17.268300  43.790900  58.500400  82.653500   0.000161  -0.003724  48.387300   0.000554  -0.002419   3.120320   1.725080  28.921100   2.916990   0.002752   0.001081   2.041890   0.005657  -0.004121  87.399300   0.003830  -0.004346  87.399300  -0.001458  -0.004133  65.549400  -0.004200  -0.000271  88.996200  -4.990690  -0.087866  92.334700  -0.002533  -0.002433  69.251100  -0.003992   0.003163  88.985200  -9.998950  -0.172663 110.000000  -0.004475   0.004235  80.000000   0.003693  -0.000129   3.268910  20.893400   7.604820   0.439461   0.060850  -2.164120  -2.694690  -3.203100  -5.502620   0.000000   0.000000   0.000000   2.882210  19.600300  -0.645434  -1.252320   5.666380 -12.354100   1.705510  -6.465370  -1.373940  -0.000000   0.000000   0.000000
  3.577580  89.170700   2.106920  -2.137480 -18.180000   5.409450  -2.524380  11.492600   6.257640  -6.538640  22.614700  13.444500   3.688120  -3.692900   0.244313   6.128120  -7.394820 -12.498800  -3.614130  -8.725460   0.989289 -66.247500  22.545300  -8.390300  -0.993237  -7.239700 -15.238800  11.366500  -6.848800   4.735370  42.573300  39.239800 -71.854400 -31.739200   0.000000   0.000000 -10.869600   0.002362   0.000000 -30.210500   4.863750  -8.284270 -25.007300   0.005273   0.007640 -17.505100  -0.002974   0.008112 -28.318400  -1.638020   3.036410 -34.773700   0.001017   0.001032 -23.159200  -0.003563  -0.000126 -27.829300  -1.612010   3.050240 -31.215200   0.000542  -0.000148 -20.789300   0.000531   0.002992 -28.542200  -1.649570   3.028910 -42.881000  -0.007726   0.000780 -28.558800  -0.005992  -0.000273   2.882010  -8.499130  10.841800   3.084000 -15.241300  57.106400  -7.117490   5.982660  -0.001164  -8.310640   6.667440  -1.292040 -16.885400  42.055200  57.869500  82.766600   0.000109  -0.003716  48.462600   0.000697  -0.002366   3.337690   1.842480  28.873100   3.119170   0.002813   0.001186   2.183420   0.006003  -0.003995  87.674600   0.003832  -0.004627  87.674600  -0.001711  -0.004152  65.755900  -0.004202  -0.000231  88.996200  -4.990600  -0.088055  92.430800  -0.002571  -0.002477  69.323200  -0.003932   0.003118  88.985200  -9.998940  -0.172570 110.000000  -0.004520   0.004305  80.000000   0.003805  -0.000166   3.273660  20.982000   7.464570   0.334928  -0.040920  -2.442460  -2.843510  -3.088360  -5.700360  -0.000000   0.000000   0.000000   2.811540  19.665000  -0.710798  -1.247550   5.800960 -12.597400   1.710810  -6.627400  -1.691000  -0.000000   0.000000  -0.000000
  3.671550  89.174800   2.193840  -1.858090 -18.168000   5.957700  -2.575150  11.439700   6.217080  -6.636730  22.505300  13.371900   3.580490  -3.807990   0.244259   5.950790  -7.631170 -12.948400  -3.615500  -8.628190   1.049520 -66.183000  22.479400  -8.414470  -1.008200  -7.474410 -14.971600  11.268400  -6.548730   4.946980  42.932400  39.711400 -72.336100 -31.816700   0.000000  -0.000000 -10.908400   0.002296   0.000000 -30.096300   4.816650  -8.237150 -24.911500   0.005476   0.007711 -17.438000  -0.002932   0.008438 -28.286000  -1.646120   3.055220 -34.474100   0.000949   0.001085 -22.959700  -0.003585  -0.000172 -27.788800  -1.619510   3.069350 -30.968800   0.000529  -0.000076 -20.625200   0.000467   0.002946 -28.310500  -1.647420   3.053840 -42.533100  -0.007724   0.000781 -28.327000  -0.005992  -0.000313   2.867110  -8.383050  10.835800   3.639410 -15.476300  57.309700  -6.905910   6.201340  -0.001162  -8.091500   6.827880  -1.375780 -16.553600  40.998700  57.417300  82.715100   0.000041  -0.003683  48.428300   0.000847  -0.002321   3.198800   1.763570  28.826500   2.987930   0.002826   0.001263   2.091550   0.006334  -0.003881  87.488100   0.003765  -0.004911  87.488100  -0.001942  -0.004125  65.616100  -0.004176  -0.000207  88.996200  -4.990510  -0.088246  92.405800  -0.002608  -0.002520  69.304400  -0.003811   0.003054  88.985300  -9.998920  -0.172466 110.000000  -0.004573   0.004394  80.000000   0.003915  -0.000214   3.107840  20.963200   7.422100   0.384855  -0.027726  -2.735860  -2.945620  -3.027090  -5.814530  -0.000000   0.000000   0.000000   2.683280  19.663600  -0.784545  -1.214330   5.996340 -12.805300   1.717790  -6.787710  -1.913860   0.000000   0.000000   0.000000
